<svg xmlns="http://www.w3.org/2000/svg" width="293" height="438" fill="none" viewBox="0 0 293 438"><path fill="url(#category-1f6c604b_svg__a)" d="M193.851 308.111c0-29.167 19.846-48.612 46.307-48.612h29.768c29.768 0 49.614 22.686 49.614 48.612v123.233c0 29.168-23.153 48.613-49.614 48.613h-26.461c-29.768 0-49.614-22.686-49.614-48.613V308.111Z"/><path fill="url(#category-1f6c604b_svg__b)" d="M.427 118.598c0-29.168 19.845-48.612 46.306-48.612h29.768c29.769 0 49.614 22.685 49.614 48.612v202.838c0 29.168-23.153 48.613-49.614 48.613h-26.46c-29.769 0-49.614-22.686-49.614-48.613V118.598Z"/><path fill="url(#category-1f6c604b_svg__c)" d="M193.851 6.544c0-29.167 19.846-48.612 46.307-48.612h29.768c29.768 0 49.614 22.686 49.614 48.612v127.259c0 29.168-23.153 48.613-49.614 48.613h-26.461c-29.768 0-49.614-22.686-49.614-48.613V6.544Z"/><defs><linearGradient id="category-1f6c604b_svg__a" x1="306.084" x2="266.071" y1="275.251" y2="527.367" gradientUnits="userSpaceOnUse"><stop/><stop offset="0.515625" stop-color="#664FED"/><stop offset="1" stop-color="#61F3D9"/></linearGradient><linearGradient id="category-1f6c604b_svg__b" x1="112.659" x2="40.0529" y1="91.4248" y2="427.538" gradientUnits="userSpaceOnUse"><stop/><stop offset="0.515625" stop-color="#664FED"/><stop offset="1" stop-color="#61F3D9"/></linearGradient><linearGradient id="category-1f6c604b_svg__c" x1="306.084" x2="264.634" y1="-26.0288" y2="230.459" gradientUnits="userSpaceOnUse"><stop/><stop offset="0.515625" stop-color="#664FED"/><stop offset="1" stop-color="#61F3D9"/></linearGradient></defs></svg>