<?xml version="1.0" encoding="UTF-8" standalone="no"?>
<svg
   width="607"
   height="583"
   fill="none"
   viewBox="0 0 607 583"
   version="1.1"
   id="svg85"
   sodipodi:docname="ezgif-1dfd34200ac77.svg"
   xmlns:inkscape="http://www.inkscape.org/namespaces/inkscape"
   xmlns:sodipodi="http://sodipodi.sourceforge.net/DTD/sodipodi-0.dtd"
   xmlns="http://www.w3.org/2000/svg"
   xmlns:svg="http://www.w3.org/2000/svg">
  <sodipodi:namedview
     id="namedview87"
     pagecolor="#ffffff"
     bordercolor="#000000"
     borderopacity="0.25"
     inkscape:showpageshadow="2"
     inkscape:pageopacity="0.0"
     inkscape:pagecheckerboard="0"
     inkscape:deskcolor="#d1d1d1" />
  <path
     fill="url(#track-hero_svg__a)"
     d="m 239.73564,58.197897 -62.02387,-16.47771 c -19.98637,-4.80479 -41.3608,0.04455 -56.54309,15.226838 L 76.312657,101.80305 C 61.82121,116.2945 55.593721,137.67104 61.085819,158.34614 l 17.167139,61.33303 c 4.804083,19.98566 20.641861,35.82344 41.316252,41.31624 l 62.02316,16.47701 c 19.98637,4.80337 41.36151,-0.0453 56.54309,-15.22684 l 44.85602,-44.85603 c 14.49216,-14.49215 20.71965,-35.8687 15.22684,-56.54308 l -16.477,-62.023168 c -6.18365,-18.6061 -22.02143,-34.443878 -42.00639,-40.626113 z"
     opacity="0.25"
     id="path2"
     style="fill:url(#track-hero_svg__a)" />
  <path
     fill="url(#track-hero_svg__b)"
     d="m 154.2733,345.47134 16.477,-62.02316 c 4.80409,-19.98567 -0.0445,-41.3608 -15.22683,-56.54309 L 110.66744,182.04906 C 96.175286,167.55691 74.799448,161.33013 54.124353,166.82223 l -61.3330281,17.16713 c -19.9856659,4.80409 -35.8234439,20.64187 -41.3162489,41.31625 l -16.477003,62.02317 c -4.803376,19.98637 0.04525,41.3615 15.227545,56.54379 l 44.8553187,44.85532 c 14.4921535,14.49215 35.8686983,20.71964 56.5430863,15.22684 l 62.023167,-16.477 c 18.6061,-6.18365 34.44388,-22.02143 40.62611,-42.00639 z"
     opacity="0.25"
     id="path4"
     style="fill:url(#track-hero_svg__b)" />
  <path
     fill="url(#track-hero_svg__c)"
     d="m 411.1659,601.94533 16.477,-62.02316 c 4.80338,-19.98637 -0.0445,-41.3608 -15.22683,-56.54309 l -44.85603,-44.85602 c -14.49215,-14.49216 -35.8687,-20.71965 -56.54309,-15.22684 l -61.33302,17.16714 c -19.98567,4.80408 -35.82345,20.64186 -41.31625,41.31625 l -16.47701,62.02316 c -4.80408,19.98567 0.0445,41.3608 15.22684,56.54309 l 44.85603,44.85602 c 14.49144,14.49145 35.86799,20.71894 56.54308,15.22684 l 62.02317,-16.477 c 18.60539,-6.18436 34.44317,-22.02213 40.62611,-42.00639 z"
     opacity="0.25"
     id="path6"
     style="fill:url(#track-hero_svg__c)" />
  <path
     fill="url(#track-hero_svg__d)"
     d="m 653.69716,349.50751 16.47701,-62.02317 c 4.80408,-19.98566 -0.0445,-41.3608 -15.22684,-56.54309 L 610.0913,186.08523 C 595.59986,171.59378 574.22331,165.36629 553.54892,170.8591 l -61.33373,17.16643 c -19.98567,4.80408 -35.82345,20.64186 -41.31625,41.31625 l -16.477,62.02316 c -4.80338,19.98638 0.0453,41.36151 15.22683,56.54309 l 44.85603,44.85603 c 14.49215,14.49215 35.8687,20.71964 56.54309,15.22683 l 62.02316,-16.477 c 18.6061,-6.18365 34.44388,-22.02143 40.62611,-42.00638 z"
     opacity="0.25"
     id="path8"
     style="fill:url(#track-hero_svg__d)" />
  <path
     fill="url(#track-hero_svg__e)"
     d="m 402.67426,98.484598 16.477,-62.023164 c 4.80408,-19.985666 -0.0445,-41.3607968 -15.22684,-56.543087 L 359.06839,-64.937678 C 344.57695,-79.429125 323.2004,-85.656614 302.52602,-80.163809 l -61.33303,17.167139 c -19.98638,4.803376 -35.82415,20.641154 -41.31625,41.316249 l -16.477,62.023164 c -4.80409,19.985666 0.0445,41.360797 15.22613,56.54238 l 44.85602,44.856027 c 14.49216,14.49215 35.8687,20.71964 56.54309,15.22684 l 62.02316,-16.47701 c 18.6061,-6.18365 34.44388,-22.02142 40.62612,-42.006382 z"
     opacity="0.25"
     id="path10"
     style="fill:url(#track-hero_svg__e)" />
  <path
     fill="url(#track-hero_svg__f)"
     d="m 408.42162,346.79929 16.47771,-62.02387 c 4.80408,-19.98567 -0.0453,-41.36009 -15.22755,-56.54238 l -44.85602,-44.85603 c -14.49145,-14.49145 -35.86799,-20.71894 -56.54238,-15.22754 l -61.33374,17.16784 c -19.98566,4.80408 -35.82344,20.64186 -41.31625,41.31625 l -16.477,62.02316 c -4.80337,19.98638 0.0453,41.36151 15.22684,56.54309 l 44.85603,44.85603 c 14.49215,14.49215 35.86869,20.71964 56.54308,15.22683 l 62.02317,-16.477 c 18.6061,-6.18365 34.44388,-22.02142 40.62611,-42.00638 z"
     opacity="0.25"
     id="path12"
     style="fill:url(#track-hero_svg__f)" />
  <path
     fill="url(#track-hero_svg__g)"
     d="m 490.76138,309.22363 -62.02317,-16.477 c -19.98566,-4.80408 -41.3608,0.0446 -56.54308,15.22684 l -44.85603,44.85602 c -14.49145,14.49145 -20.71894,35.86799 -15.22684,56.54309 l 17.16714,61.33303 c 4.80408,19.98566 20.64186,35.82344 41.31625,41.31625 l 62.02316,16.477 c 19.98638,4.80338 41.36151,-0.0453 56.54309,-15.22684 L 534.01793,468.416 c 14.49215,-14.49216 20.71964,-35.8687 15.22683,-56.54309 l -16.477,-62.02316 c -6.18365,-18.60611 -22.02142,-34.44388 -42.00638,-40.62612 z"
     opacity="0.25"
     id="path14"
     style="fill:url(#track-hero_svg__g)" />
  <path
     fill="url(#track-hero_svg__h)"
     d="m 243.52361,308.47198 -62.02316,-16.477 c -19.98567,-4.80409 -41.3608,0.0445 -56.54309,15.22683 l -44.856025,44.85603 c -14.491447,14.49145 -20.718936,35.86799 -15.226838,56.54309 l 17.167139,61.33302 c 4.804083,19.98567 20.641864,35.82345 41.316244,41.31625 l 62.02317,16.477 c 19.98637,4.80338 41.3615,-0.0453 56.54309,-15.22683 l 44.85602,-44.85603 c 14.49216,-14.49215 20.71964,-35.8687 15.22684,-56.54308 L 285.53,349.09809 c -6.18365,-18.6061 -22.02143,-34.44388 -42.00639,-40.62611 z"
     opacity="0.25"
     id="path16"
     style="fill:url(#track-hero_svg__h)" />
  <path
     fill="url(#track-hero_svg__i)"
     d="m 529.70528,225.51562 16.477,-62.02316 c 4.80409,-19.98567 -0.0445,-41.3608 -15.22613,-56.54238 L 486.10013,62.094055 C 471.60797,47.601901 450.23143,41.374412 429.55704,46.867218 l -61.33303,17.167138 c -19.98637,4.803376 -35.82415,20.641154 -41.31625,41.316254 l -16.477,62.02316 c -4.80408,19.98567 0.0445,41.3608 15.22613,56.54238 l 44.85674,44.85673 c 14.49144,14.49145 35.86799,20.71894 56.54237,15.22613 l 62.02317,-16.477 c 18.6061,-6.18365 34.44388,-22.02143 40.62611,-42.00639 z"
     opacity="0.25"
     id="path18"
     style="fill:url(#track-hero_svg__i)" />
  <defs
     id="defs83">
    <linearGradient
       id="track-hero_svg__a"
       x1="352.528"
       x2="52.101"
       y1="164.005"
       y2="335.354"
       gradientUnits="userSpaceOnUse"
       gradientTransform="rotate(45,303.43591,291.08213)">
      <stop
         stop-color="#73E2CE"
         id="stop20" />
      <stop
         offset=".383"
         stop-color="#6C63FF"
         id="stop22" />
      <stop
         offset="1"
         id="stop24" />
    </linearGradient>
    <linearGradient
       id="track-hero_svg__b"
       x1="243.867"
       x2="72.518"
       y1="693.824"
       y2="393.397"
       gradientUnits="userSpaceOnUse"
       gradientTransform="rotate(45,303.43591,291.08213)">
      <stop
         stop-color="#73E2CE"
         id="stop27" />
      <stop
         offset=".383"
         stop-color="#6C63FF"
         id="stop29" />
      <stop
         offset="1"
         id="stop31" />
    </linearGradient>
    <linearGradient
       id="track-hero_svg__c"
       x1="606.872"
       x2="435.522"
       y1="693.528"
       y2="393.101"
       gradientUnits="userSpaceOnUse"
       gradientTransform="rotate(45,303.43591,291.08213)">
      <stop
         stop-color="#73E2CE"
         id="stop34" />
      <stop
         offset=".383"
         stop-color="#6C63FF"
         id="stop36" />
      <stop
         offset="1"
         id="stop38" />
    </linearGradient>
    <linearGradient
       id="track-hero_svg__d"
       x1="599.867"
       x2="428.518"
       y1="343.532"
       y2="43.105"
       gradientUnits="userSpaceOnUse"
       gradientTransform="rotate(45,303.43591,291.08213)">
      <stop
         stop-color="#73E2CE"
         id="stop41" />
      <stop
         offset=".383"
         stop-color="#6C63FF"
         id="stop43" />
      <stop
         offset="1"
         id="stop45" />
    </linearGradient>
    <linearGradient
       id="track-hero_svg__e"
       x1="244.867"
       x2="73.518"
       y1="343.532"
       y2="43.105"
       gradientUnits="userSpaceOnUse"
       gradientTransform="rotate(45,303.43591,291.08213)">
      <stop
         stop-color="#73E2CE"
         id="stop48" />
      <stop
         offset=".383"
         stop-color="#6C63FF"
         id="stop50" />
      <stop
         offset="1"
         id="stop52" />
    </linearGradient>
    <linearGradient
       id="track-hero_svg__f"
       x1="424.516"
       x2="253.167"
       y1="515.052"
       y2="214.626"
       gradientUnits="userSpaceOnUse"
       gradientTransform="rotate(45,303.43591,291.08213)">
      <stop
         stop-color="#73E2CE"
         id="stop55" />
      <stop
         offset=".383"
         stop-color="#6C63FF"
         id="stop57" />
      <stop
         offset="1"
         id="stop59" />
    </linearGradient>
    <linearGradient
       id="track-hero_svg__g"
       x1="707.532"
       x2="407.105"
       y1="164.005"
       y2="335.354"
       gradientUnits="userSpaceOnUse"
       gradientTransform="rotate(45,303.43591,291.08213)">
      <stop
         stop-color="#73E2CE"
         id="stop62" />
      <stop
         offset=".383"
         stop-color="#6C63FF"
         id="stop64" />
      <stop
         offset="1"
         id="stop66" />
    </linearGradient>
    <linearGradient
       id="track-hero_svg__h"
       x1="532.177"
       x2="231.75"
       y1="338.297"
       y2="509.646"
       gradientUnits="userSpaceOnUse"
       gradientTransform="rotate(45,303.43591,291.08213)">
      <stop
         stop-color="#73E2CE"
         id="stop69" />
      <stop
         offset=".383"
         stop-color="#6C63FF"
         id="stop71" />
      <stop
         offset="1"
         id="stop73" />
    </linearGradient>
    <linearGradient
       id="track-hero_svg__i"
       x1="424.516"
       x2="253.167"
       y1="343.532"
       y2="43.105"
       gradientUnits="userSpaceOnUse"
       gradientTransform="rotate(45,303.43591,291.08213)">
      <stop
         stop-color="#73E2CE"
         id="stop76" />
      <stop
         offset=".383"
         stop-color="#6C63FF"
         id="stop78" />
      <stop
         offset="1"
         id="stop80" />
    </linearGradient>
  </defs>
</svg>
